<mxfile host="app.diagrams.net" agent="Mozilla/5.0 (Windows NT 10.0; Win64; x64) AppleWebKit/537.36 (KHTML, like Gecko) Chrome/137.0.0.0 Safari/537.36 Edg/137.0.0.0" version="27.0.5">
  <diagram name="Page-1" id="b5b7bab2-c9e2-2cf4-8b2a-24fd1a2a6d21">
    <mxGraphModel dx="1418" dy="756" grid="1" gridSize="10" guides="1" tooltips="1" connect="1" arrows="1" fold="1" page="1" pageScale="1" pageWidth="827" pageHeight="1169" background="none" math="0" shadow="0">
      <root>
        <mxCell id="0" />
        <mxCell id="1" parent="0" />
        <mxCell id="6e0c8c40b5770093-72" value="" style="shape=folder;fontStyle=1;spacingTop=10;tabWidth=194;tabHeight=22;tabPosition=left;html=1;rounded=0;shadow=0;comic=0;labelBackgroundColor=none;strokeWidth=1;fillColor=none;fontFamily=Verdana;fontSize=10;align=center;fillOpacity=0;container=0;" parent="1" vertex="1">
          <mxGeometry x="320" y="60" width="910" height="690" as="geometry" />
        </mxCell>
        <mxCell id="WArmY9lFXDh91Jk2O42J-56" value="" style="shape=folder;fontStyle=1;spacingTop=10;tabWidth=50;tabHeight=17;tabPosition=left;html=1;rounded=0;shadow=0;comic=0;labelBackgroundColor=none;strokeWidth=1;fontFamily=Verdana;fontSize=10;align=center;" vertex="1" parent="1">
          <mxGeometry x="1030" y="160" width="170" height="390" as="geometry" />
        </mxCell>
        <mxCell id="6e0c8c40b5770093-6" value="" style="group" parent="1" vertex="1" connectable="0">
          <mxGeometry x="361.5" y="160" width="130" height="70" as="geometry" />
        </mxCell>
        <mxCell id="6e0c8c40b5770093-4" value="TaskScheduler" style="shape=folder;fontStyle=1;spacingTop=10;tabWidth=50;tabHeight=17;tabPosition=left;html=1;rounded=0;shadow=0;comic=0;labelBackgroundColor=none;strokeWidth=1;fontFamily=Verdana;fontSize=10;align=center;" parent="6e0c8c40b5770093-6" vertex="1">
          <mxGeometry width="130" height="70" as="geometry" />
        </mxCell>
        <mxCell id="6e0c8c40b5770093-73" value="Main" style="text;html=1;align=left;verticalAlign=top;spacingTop=-4;fontSize=10;fontFamily=Verdana" parent="1" vertex="1">
          <mxGeometry x="330" y="60" width="130" height="20" as="geometry" />
        </mxCell>
        <mxCell id="WArmY9lFXDh91Jk2O42J-1" value="" style="group" vertex="1" connectable="0" parent="1">
          <mxGeometry x="150" y="280" width="130" height="70" as="geometry" />
        </mxCell>
        <mxCell id="WArmY9lFXDh91Jk2O42J-2" value="LibTempSensor&lt;div&gt;&lt;br&gt;&lt;/div&gt;" style="shape=folder;fontStyle=1;spacingTop=10;tabWidth=50;tabHeight=17;tabPosition=left;html=1;rounded=0;shadow=0;comic=0;labelBackgroundColor=none;strokeWidth=1;fontFamily=Verdana;fontSize=10;align=center;" vertex="1" parent="WArmY9lFXDh91Jk2O42J-1">
          <mxGeometry width="130" height="70" as="geometry" />
        </mxCell>
        <mxCell id="WArmY9lFXDh91Jk2O42J-4" value="&lt;div&gt;LibWlanConnection&lt;/div&gt;" style="shape=folder;fontStyle=1;spacingTop=10;tabWidth=50;tabHeight=17;tabPosition=left;html=1;rounded=0;shadow=0;comic=0;labelBackgroundColor=none;strokeWidth=1;fontFamily=Verdana;fontSize=10;align=center;" vertex="1" parent="1">
          <mxGeometry x="150" y="620" width="130" height="70" as="geometry" />
        </mxCell>
        <mxCell id="WArmY9lFXDh91Jk2O42J-5" value="LibStartButton" style="shape=folder;fontStyle=1;spacingTop=10;tabWidth=50;tabHeight=17;tabPosition=left;html=1;rounded=0;shadow=0;comic=0;labelBackgroundColor=none;strokeWidth=1;fontFamily=Verdana;fontSize=10;align=center;" vertex="1" parent="1">
          <mxGeometry x="150" y="440" width="130" height="70" as="geometry" />
        </mxCell>
        <mxCell id="WArmY9lFXDh91Jk2O42J-6" value="&lt;div&gt;LibKeyPad&lt;/div&gt;" style="shape=folder;fontStyle=1;spacingTop=10;tabWidth=50;tabHeight=17;tabPosition=left;html=1;rounded=0;shadow=0;comic=0;labelBackgroundColor=none;strokeWidth=1;fontFamily=Verdana;fontSize=10;align=center;" vertex="1" parent="1">
          <mxGeometry x="150" y="520" width="130" height="70" as="geometry" />
        </mxCell>
        <mxCell id="WArmY9lFXDh91Jk2O42J-7" value="&lt;div&gt;LibOLED&lt;/div&gt;" style="shape=folder;fontStyle=1;spacingTop=10;tabWidth=50;tabHeight=17;tabPosition=left;html=1;rounded=0;shadow=0;comic=0;labelBackgroundColor=none;strokeWidth=1;fontFamily=Verdana;fontSize=10;align=center;" vertex="1" parent="1">
          <mxGeometry x="1270" y="160" width="130" height="70" as="geometry" />
        </mxCell>
        <mxCell id="WArmY9lFXDh91Jk2O42J-8" value="" style="group" vertex="1" connectable="0" parent="1">
          <mxGeometry x="150" y="360" width="130" height="70" as="geometry" />
        </mxCell>
        <mxCell id="WArmY9lFXDh91Jk2O42J-9" value="&lt;div&gt;LibCurrentSensor&lt;/div&gt;" style="shape=folder;fontStyle=1;spacingTop=10;tabWidth=50;tabHeight=17;tabPosition=left;html=1;rounded=0;shadow=0;comic=0;labelBackgroundColor=none;strokeWidth=1;fontFamily=Verdana;fontSize=10;align=center;" vertex="1" parent="WArmY9lFXDh91Jk2O42J-8">
          <mxGeometry width="130" height="70" as="geometry" />
        </mxCell>
        <mxCell id="WArmY9lFXDh91Jk2O42J-12" value="" style="group" vertex="1" connectable="0" parent="1">
          <mxGeometry x="740" y="160" width="130" height="70" as="geometry" />
        </mxCell>
        <mxCell id="WArmY9lFXDh91Jk2O42J-13" value="Watchdog" style="shape=folder;fontStyle=1;spacingTop=10;tabWidth=50;tabHeight=17;tabPosition=left;html=1;rounded=0;shadow=0;comic=0;labelBackgroundColor=none;strokeWidth=1;fontFamily=Verdana;fontSize=10;align=center;" vertex="1" parent="WArmY9lFXDh91Jk2O42J-12">
          <mxGeometry width="130" height="70" as="geometry" />
        </mxCell>
        <mxCell id="WArmY9lFXDh91Jk2O42J-14" value="" style="group" vertex="1" connectable="0" parent="1">
          <mxGeometry x="361.5" y="360" width="168.5" height="250" as="geometry" />
        </mxCell>
        <mxCell id="WArmY9lFXDh91Jk2O42J-15" value="" style="shape=folder;fontStyle=1;spacingTop=10;tabWidth=50;tabHeight=17;tabPosition=left;html=1;rounded=0;shadow=0;comic=0;labelBackgroundColor=none;strokeWidth=1;fontFamily=Verdana;fontSize=10;align=center;" vertex="1" parent="WArmY9lFXDh91Jk2O42J-14">
          <mxGeometry width="168.5" height="220" as="geometry" />
        </mxCell>
        <mxCell id="WArmY9lFXDh91Jk2O42J-51" value="&lt;font style=&quot;font-size: 10px;&quot; face=&quot;Verdana&quot;&gt;&lt;b style=&quot;background-color: light-dark(#ffffff, var(--ge-dark-color, #121212));&quot;&gt;CollectInputData&lt;/b&gt;&lt;/font&gt;" style="text;html=1;align=center;verticalAlign=middle;whiteSpace=wrap;rounded=0;" vertex="1" parent="WArmY9lFXDh91Jk2O42J-14">
          <mxGeometry x="-4.399999999999977" y="20" width="134.4" height="30" as="geometry" />
        </mxCell>
        <mxCell id="WArmY9lFXDh91Jk2O42J-17" value="&lt;div&gt;UpdateNTPTime&lt;/div&gt;" style="shape=folder;fontStyle=1;spacingTop=10;tabWidth=50;tabHeight=17;tabPosition=left;html=1;rounded=0;shadow=0;comic=0;labelBackgroundColor=none;strokeWidth=1;fontFamily=Verdana;fontSize=10;align=center;" vertex="1" parent="WArmY9lFXDh91Jk2O42J-14">
          <mxGeometry x="19.25" y="50" width="130" height="70" as="geometry" />
        </mxCell>
        <mxCell id="WArmY9lFXDh91Jk2O42J-52" value="ReadHWInputs" style="shape=folder;fontStyle=1;spacingTop=10;tabWidth=50;tabHeight=17;tabPosition=left;html=1;rounded=0;shadow=0;comic=0;labelBackgroundColor=none;strokeWidth=1;fontFamily=Verdana;fontSize=10;align=center;" vertex="1" parent="WArmY9lFXDh91Jk2O42J-14">
          <mxGeometry x="19.25" y="130" width="130" height="70" as="geometry" />
        </mxCell>
        <mxCell id="WArmY9lFXDh91Jk2O42J-16" value="drv_REST" style="shape=folder;fontStyle=1;spacingTop=10;tabWidth=50;tabHeight=17;tabPosition=left;html=1;rounded=0;shadow=0;comic=0;labelBackgroundColor=none;strokeWidth=1;fontFamily=Verdana;fontSize=10;align=center;" vertex="1" parent="1">
          <mxGeometry x="1050" y="295" width="130" height="70" as="geometry" />
        </mxCell>
        <mxCell id="WArmY9lFXDh91Jk2O42J-18" value="" style="group" vertex="1" connectable="0" parent="1">
          <mxGeometry x="877" y="160" width="130" height="70" as="geometry" />
        </mxCell>
        <mxCell id="WArmY9lFXDh91Jk2O42J-19" value="ConfigData" style="shape=folder;fontStyle=1;spacingTop=10;tabWidth=50;tabHeight=17;tabPosition=left;html=1;rounded=0;shadow=0;comic=0;labelBackgroundColor=none;strokeWidth=1;fontFamily=Verdana;fontSize=10;align=center;" vertex="1" parent="WArmY9lFXDh91Jk2O42J-18">
          <mxGeometry width="130" height="70" as="geometry" />
        </mxCell>
        <mxCell id="WArmY9lFXDh91Jk2O42J-20" value="" style="group" vertex="1" connectable="0" parent="1">
          <mxGeometry x="740" y="240" width="150" height="210" as="geometry" />
        </mxCell>
        <mxCell id="WArmY9lFXDh91Jk2O42J-21" value="" style="shape=folder;fontStyle=1;spacingTop=10;tabWidth=50;tabHeight=17;tabPosition=left;html=1;rounded=0;shadow=0;comic=0;labelBackgroundColor=none;strokeWidth=1;fontFamily=Verdana;fontSize=10;align=center;" vertex="1" parent="WArmY9lFXDh91Jk2O42J-20">
          <mxGeometry width="150" height="120" as="geometry" />
        </mxCell>
        <mxCell id="WArmY9lFXDh91Jk2O42J-59" value="" style="shape=process;whiteSpace=wrap;html=1;backgroundOutline=1;" vertex="1" parent="WArmY9lFXDh91Jk2O42J-20">
          <mxGeometry x="15" y="55" width="120" height="40" as="geometry" />
        </mxCell>
        <mxCell id="WArmY9lFXDh91Jk2O42J-60" value="&lt;font style=&quot;font-size: 10px;&quot; face=&quot;Verdana&quot;&gt;&lt;b style=&quot;background-color: light-dark(#ffffff, var(--ge-dark-color, #121212));&quot;&gt;Version&lt;/b&gt;&lt;/font&gt;" style="text;html=1;align=center;verticalAlign=middle;whiteSpace=wrap;rounded=0;" vertex="1" parent="WArmY9lFXDh91Jk2O42J-20">
          <mxGeometry x="36.39999999999998" y="57.5" width="77.2" height="35" as="geometry" />
        </mxCell>
        <mxCell id="WArmY9lFXDh91Jk2O42J-61" value="&lt;b style=&quot;font-family: Verdana; font-size: 10px; background-color: rgb(255, 255, 255);&quot;&gt;Logging&lt;/b&gt;" style="text;html=1;align=center;verticalAlign=middle;whiteSpace=wrap;rounded=0;" vertex="1" parent="WArmY9lFXDh91Jk2O42J-20">
          <mxGeometry x="-9.4" y="20" width="99.4" height="35" as="geometry" />
        </mxCell>
        <mxCell id="WArmY9lFXDh91Jk2O42J-58" value="Communication_REST" style="shape=folder;fontStyle=1;spacingTop=10;tabWidth=50;tabHeight=17;tabPosition=left;html=1;rounded=0;shadow=0;comic=0;labelBackgroundColor=none;strokeWidth=1;fontFamily=Verdana;fontSize=10;align=center;" vertex="1" parent="WArmY9lFXDh91Jk2O42J-20">
          <mxGeometry y="140" width="130" height="70" as="geometry" />
        </mxCell>
        <mxCell id="WArmY9lFXDh91Jk2O42J-22" value="" style="group" vertex="1" connectable="0" parent="1">
          <mxGeometry x="150" y="200" width="130" height="70" as="geometry" />
        </mxCell>
        <mxCell id="WArmY9lFXDh91Jk2O42J-23" value="LibWeightSensor" style="shape=folder;fontStyle=1;spacingTop=10;tabWidth=50;tabHeight=17;tabPosition=left;html=1;rounded=0;shadow=0;comic=0;labelBackgroundColor=none;strokeWidth=1;fontFamily=Verdana;fontSize=10;align=center;" vertex="1" parent="WArmY9lFXDh91Jk2O42J-22">
          <mxGeometry width="130" height="70" as="geometry" />
        </mxCell>
        <mxCell id="WArmY9lFXDh91Jk2O42J-24" value="" style="group" vertex="1" connectable="0" parent="1">
          <mxGeometry x="150" y="120" width="130" height="70" as="geometry" />
        </mxCell>
        <mxCell id="WArmY9lFXDh91Jk2O42J-25" value="LibHallSensor" style="shape=folder;fontStyle=1;spacingTop=10;tabWidth=50;tabHeight=17;tabPosition=left;html=1;rounded=0;shadow=0;comic=0;labelBackgroundColor=none;strokeWidth=1;fontFamily=Verdana;fontSize=10;align=center;" vertex="1" parent="WArmY9lFXDh91Jk2O42J-24">
          <mxGeometry width="130" height="70" as="geometry" />
        </mxCell>
        <mxCell id="WArmY9lFXDh91Jk2O42J-26" value="" style="group" vertex="1" connectable="0" parent="1">
          <mxGeometry x="1050" y="215" width="130" height="70" as="geometry" />
        </mxCell>
        <mxCell id="WArmY9lFXDh91Jk2O42J-27" value="drv_display" style="shape=folder;fontStyle=1;spacingTop=10;tabWidth=50;tabHeight=17;tabPosition=left;html=1;rounded=0;shadow=0;comic=0;labelBackgroundColor=none;strokeWidth=1;fontFamily=Verdana;fontSize=10;align=center;" vertex="1" parent="WArmY9lFXDh91Jk2O42J-26">
          <mxGeometry width="130" height="70" as="geometry" />
        </mxCell>
        <mxCell id="WArmY9lFXDh91Jk2O42J-28" value="&lt;div&gt;LibHomeAssistant&lt;/div&gt;" style="shape=folder;fontStyle=1;spacingTop=10;tabWidth=50;tabHeight=17;tabPosition=left;html=1;rounded=0;shadow=0;comic=0;labelBackgroundColor=none;strokeWidth=1;fontFamily=Verdana;fontSize=10;align=center;" vertex="1" parent="1">
          <mxGeometry x="1270" y="240" width="130" height="70" as="geometry" />
        </mxCell>
        <mxCell id="WArmY9lFXDh91Jk2O42J-29" value="&lt;div&gt;LibLED&lt;/div&gt;" style="shape=folder;fontStyle=1;spacingTop=10;tabWidth=50;tabHeight=17;tabPosition=left;html=1;rounded=0;shadow=0;comic=0;labelBackgroundColor=none;strokeWidth=1;fontFamily=Verdana;fontSize=10;align=center;" vertex="1" parent="1">
          <mxGeometry x="1270" y="320" width="130" height="70" as="geometry" />
        </mxCell>
        <mxCell id="WArmY9lFXDh91Jk2O42J-30" value="drv_Relay" style="shape=folder;fontStyle=1;spacingTop=10;tabWidth=50;tabHeight=17;tabPosition=left;html=1;rounded=0;shadow=0;comic=0;labelBackgroundColor=none;strokeWidth=1;fontFamily=Verdana;fontSize=10;align=center;" vertex="1" parent="1">
          <mxGeometry x="1050" y="455" width="130" height="70" as="geometry" />
        </mxCell>
        <mxCell id="WArmY9lFXDh91Jk2O42J-37" value="" style="group" vertex="1" connectable="0" parent="1">
          <mxGeometry x="361.5" y="260" width="130" height="70" as="geometry" />
        </mxCell>
        <mxCell id="WArmY9lFXDh91Jk2O42J-38" value="StartConditions" style="shape=folder;fontStyle=1;spacingTop=10;tabWidth=50;tabHeight=17;tabPosition=left;html=1;rounded=0;shadow=0;comic=0;labelBackgroundColor=none;strokeWidth=1;fontFamily=Verdana;fontSize=10;align=center;" vertex="1" parent="WArmY9lFXDh91Jk2O42J-37">
          <mxGeometry width="130" height="70" as="geometry" />
        </mxCell>
        <mxCell id="WArmY9lFXDh91Jk2O42J-39" value="&lt;div&gt;LibRelay&lt;/div&gt;" style="shape=folder;fontStyle=1;spacingTop=10;tabWidth=50;tabHeight=17;tabPosition=left;html=1;rounded=0;shadow=0;comic=0;labelBackgroundColor=none;strokeWidth=1;fontFamily=Verdana;fontSize=10;align=center;" vertex="1" parent="1">
          <mxGeometry x="1270" y="400" width="130" height="70" as="geometry" />
        </mxCell>
        <mxCell id="WArmY9lFXDh91Jk2O42J-40" value="drv_LED" style="shape=folder;fontStyle=1;spacingTop=10;tabWidth=50;tabHeight=17;tabPosition=left;html=1;rounded=0;shadow=0;comic=0;labelBackgroundColor=none;strokeWidth=1;fontFamily=Verdana;fontSize=10;align=center;" vertex="1" parent="1">
          <mxGeometry x="1050" y="375" width="130" height="70" as="geometry" />
        </mxCell>
        <mxCell id="WArmY9lFXDh91Jk2O42J-41" value="" style="group" vertex="1" connectable="0" parent="1">
          <mxGeometry x="560" y="350" width="240" height="220" as="geometry" />
        </mxCell>
        <mxCell id="WArmY9lFXDh91Jk2O42J-43" value="" style="group" vertex="1" connectable="0" parent="WArmY9lFXDh91Jk2O42J-41">
          <mxGeometry width="240" height="220" as="geometry" />
        </mxCell>
        <mxCell id="WArmY9lFXDh91Jk2O42J-31" value="" style="shape=folder;fontStyle=1;spacingTop=10;tabWidth=50;tabHeight=17;tabPosition=left;html=1;rounded=0;shadow=0;comic=0;labelBackgroundColor=none;strokeWidth=1;fontFamily=Verdana;fontSize=10;align=center;" vertex="1" parent="WArmY9lFXDh91Jk2O42J-43">
          <mxGeometry width="160" height="220" as="geometry" />
        </mxCell>
        <mxCell id="WArmY9lFXDh91Jk2O42J-36" value="&lt;font style=&quot;font-size: 10px;&quot; face=&quot;Verdana&quot;&gt;&lt;b style=&quot;background-color: light-dark(#ffffff, var(--ge-dark-color, #121212));&quot;&gt;HaySteamerProgram&lt;/b&gt;&lt;/font&gt;" style="text;html=1;align=center;verticalAlign=middle;whiteSpace=wrap;rounded=0;" vertex="1" parent="WArmY9lFXDh91Jk2O42J-43">
          <mxGeometry y="20" width="134.4" height="30" as="geometry" />
        </mxCell>
        <mxCell id="WArmY9lFXDh91Jk2O42J-33" value="Transitions" style="shape=folder;fontStyle=1;spacingTop=10;tabWidth=50;tabHeight=17;tabPosition=left;html=1;rounded=0;shadow=0;comic=0;labelBackgroundColor=none;strokeWidth=1;fontFamily=Verdana;fontSize=10;align=center;" vertex="1" parent="WArmY9lFXDh91Jk2O42J-43">
          <mxGeometry x="20" y="50" width="124.8" height="70" as="geometry" />
        </mxCell>
        <mxCell id="WArmY9lFXDh91Jk2O42J-35" value="Actions" style="shape=folder;fontStyle=1;spacingTop=10;tabWidth=50;tabHeight=17;tabPosition=left;html=1;rounded=0;shadow=0;comic=0;labelBackgroundColor=none;strokeWidth=1;fontFamily=Verdana;fontSize=10;align=center;" vertex="1" parent="WArmY9lFXDh91Jk2O42J-43">
          <mxGeometry x="20" y="130" width="124.8" height="70" as="geometry" />
        </mxCell>
        <mxCell id="WArmY9lFXDh91Jk2O42J-44" value="" style="group" vertex="1" connectable="0" parent="1">
          <mxGeometry x="550" y="160" width="250" height="190" as="geometry" />
        </mxCell>
        <mxCell id="WArmY9lFXDh91Jk2O42J-50" value="" style="group" vertex="1" connectable="0" parent="WArmY9lFXDh91Jk2O42J-44">
          <mxGeometry width="250" height="190" as="geometry" />
        </mxCell>
        <mxCell id="WArmY9lFXDh91Jk2O42J-11" value="" style="shape=folder;fontStyle=1;spacingTop=10;tabWidth=50;tabHeight=17;tabPosition=left;html=1;rounded=0;shadow=0;comic=0;labelBackgroundColor=none;strokeWidth=1;fontFamily=Verdana;fontSize=10;align=center;" vertex="1" parent="WArmY9lFXDh91Jk2O42J-50">
          <mxGeometry x="10" width="150" height="170" as="geometry" />
        </mxCell>
        <mxCell id="WArmY9lFXDh91Jk2O42J-42" value="&lt;b style=&quot;font-family: Verdana; font-size: 10px; background-color: rgb(255, 255, 255);&quot;&gt;FaultDetection&lt;/b&gt;" style="text;html=1;align=center;verticalAlign=middle;whiteSpace=wrap;rounded=0;" vertex="1" parent="WArmY9lFXDh91Jk2O42J-50">
          <mxGeometry y="17.50333333333333" width="134.4" height="35" as="geometry" />
        </mxCell>
        <mxCell id="WArmY9lFXDh91Jk2O42J-45" value="" style="shape=process;whiteSpace=wrap;html=1;backgroundOutline=1;" vertex="1" parent="WArmY9lFXDh91Jk2O42J-50">
          <mxGeometry x="26.400000000000006" y="52.5" width="120" height="40" as="geometry" />
        </mxCell>
        <mxCell id="WArmY9lFXDh91Jk2O42J-46" value="" style="shape=process;whiteSpace=wrap;html=1;backgroundOutline=1;" vertex="1" parent="WArmY9lFXDh91Jk2O42J-50">
          <mxGeometry x="26.400000000000006" y="110" width="120" height="40" as="geometry" />
        </mxCell>
        <mxCell id="WArmY9lFXDh91Jk2O42J-47" value="&lt;font style=&quot;font-size: 10px;&quot; face=&quot;Verdana&quot;&gt;&lt;b style=&quot;background-color: light-dark(#ffffff, var(--ge-dark-color, #121212));&quot;&gt;Condition1&lt;/b&gt;&lt;/font&gt;" style="text;html=1;align=center;verticalAlign=middle;whiteSpace=wrap;rounded=0;" vertex="1" parent="WArmY9lFXDh91Jk2O42J-50">
          <mxGeometry x="50" y="55" width="67.2" height="35" as="geometry" />
        </mxCell>
        <mxCell id="WArmY9lFXDh91Jk2O42J-48" value="&lt;font style=&quot;font-size: 10px;&quot; face=&quot;Verdana&quot;&gt;&lt;b style=&quot;background-color: light-dark(#ffffff, var(--ge-dark-color, #121212));&quot;&gt;Condition2&lt;/b&gt;&lt;/font&gt;" style="text;html=1;align=center;verticalAlign=middle;whiteSpace=wrap;rounded=0;" vertex="1" parent="WArmY9lFXDh91Jk2O42J-50">
          <mxGeometry x="47.80000000000001" y="112.5" width="77.2" height="35" as="geometry" />
        </mxCell>
        <mxCell id="WArmY9lFXDh91Jk2O42J-57" value="&lt;font style=&quot;font-size: 10px;&quot; face=&quot;Verdana&quot;&gt;&lt;b style=&quot;background-color: light-dark(#ffffff, var(--ge-dark-color, #121212));&quot;&gt;output_drivers&lt;/b&gt;&lt;/font&gt;" style="text;html=1;align=center;verticalAlign=middle;whiteSpace=wrap;rounded=0;" vertex="1" parent="1">
          <mxGeometry x="1030" y="180" width="134.4" height="30" as="geometry" />
        </mxCell>
        <mxCell id="WArmY9lFXDh91Jk2O42J-62" value="" style="shape=folder;fontStyle=1;spacingTop=10;tabWidth=50;tabHeight=17;tabPosition=left;html=1;rounded=0;shadow=0;comic=0;labelBackgroundColor=none;strokeWidth=1;fontFamily=Verdana;fontSize=10;align=center;" vertex="1" parent="1">
          <mxGeometry x="559.4" y="590" width="150" height="120" as="geometry" />
        </mxCell>
        <mxCell id="WArmY9lFXDh91Jk2O42J-63" value="" style="shape=process;whiteSpace=wrap;html=1;backgroundOutline=1;" vertex="1" parent="1">
          <mxGeometry x="574.4" y="645" width="120" height="40" as="geometry" />
        </mxCell>
        <mxCell id="WArmY9lFXDh91Jk2O42J-64" value="&lt;font style=&quot;font-size: 10px;&quot; face=&quot;Verdana&quot;&gt;&lt;b style=&quot;background-color: light-dark(#ffffff, var(--ge-dark-color, #121212));&quot;&gt;State&lt;/b&gt;&lt;/font&gt;" style="text;html=1;align=center;verticalAlign=middle;whiteSpace=wrap;rounded=0;" vertex="1" parent="1">
          <mxGeometry x="595.8" y="647.5" width="77.2" height="35" as="geometry" />
        </mxCell>
        <mxCell id="WArmY9lFXDh91Jk2O42J-65" value="&lt;b style=&quot;font-family: Verdana; font-size: 10px; background-color: rgb(255, 255, 255);&quot;&gt;StateMachine&lt;/b&gt;" style="text;html=1;align=center;verticalAlign=middle;whiteSpace=wrap;rounded=0;" vertex="1" parent="1">
          <mxGeometry x="550" y="610" width="120" height="35" as="geometry" />
        </mxCell>
      </root>
    </mxGraphModel>
  </diagram>
</mxfile>
